<svg width="67" height="67" viewBox="0 0 67 67" fill="none" xmlns="http://www.w3.org/2000/svg">
<g id="facebook-logo-2019" clip-path="url(#clip0_359_1048)">
<path id="Vector" d="M67 33.5C67 14.9985 52.0015 0 33.5 0C14.9985 0 0 14.9985 0 33.5C0 50.2208 12.2505 64.0799 28.2656 66.5929V43.1836H19.7598V33.5H28.2656V26.1195C28.2656 17.7236 33.267 13.0859 40.919 13.0859C44.5843 13.0859 48.418 13.7402 48.418 13.7402V21.9844H44.1936C40.0322 21.9844 38.7344 24.5667 38.7344 27.216V33.5H48.0254L46.5401 43.1836H38.7344V66.5929C54.7495 64.0799 67 50.2208 67 33.5Z" fill="#1877F2"/>
<path id="Vector_2" d="M46.5401 43.1836L48.0254 33.5H38.7344V27.216C38.7344 24.5667 40.0322 21.9844 44.1936 21.9844H48.418V13.7402C48.418 13.7402 44.5843 13.0859 40.919 13.0859C33.267 13.0859 28.2656 17.7236 28.2656 26.1195V33.5H19.7598V43.1836H28.2656V66.5929C31.7341 67.1357 35.2659 67.1357 38.7344 66.5929V43.1836H46.5401Z" fill="white"/>
</g>
<defs>
<clipPath id="clip0_359_1048">
<rect width="67" height="67" fill="white"/>
</clipPath>
</defs>
</svg>
