<svg width="67" height="67" viewBox="0 0 67 67" fill="none" xmlns="http://www.w3.org/2000/svg">
<g id="instagram" clip-path="url(#clip0_359_1040)">
<g id="Layer 2">
<g id="Layer 1">
<path id="Vector" d="M51.9615 0H15.0384C6.73294 0 0 6.73294 0 15.0384V51.9615C0 60.2671 6.73294 67 15.0384 67H51.9615C60.2671 67 67 60.2671 67 51.9615V15.0384C67 6.73294 60.2671 0 51.9615 0Z" fill="url(#paint0_linear_359_1040)"/>
<g id="&#60;Group&#62;">
<path id="&#60;Compound Path&#62;" d="M23.2075 11.6038H44.0942C44.5584 11.8358 45.2546 11.8358 45.7187 12.0679C47.7555 12.398 49.6598 13.2896 51.2177 14.6425C52.7756 15.9954 53.9253 17.756 54.5376 19.7264C54.8803 20.8618 55.1135 22.0276 55.2338 23.2075V43.6301C54.902 46.2184 53.9463 48.6873 52.4489 50.8244C51.1643 52.3128 49.5538 53.4849 47.7425 54.2496C45.9313 55.0144 43.9681 55.3512 42.0055 55.2338H24.5999C21.4937 55.3846 18.4396 54.3941 16.0132 52.4489C14.5376 51.1741 13.3732 49.5786 12.609 47.7846C11.8447 45.9907 11.5009 44.0457 11.6037 42.0984V25.8532C11.5654 24.688 11.6431 23.5218 11.8358 22.372C12.0702 19.9928 13.0484 17.7479 14.6316 15.9564C16.2148 14.1649 18.3223 12.918 20.6547 12.3928L23.2075 11.6038ZM16.0132 33.6509V42.7018C15.9142 43.8544 16.0684 45.0146 16.4649 46.1013C16.8615 47.1881 17.4908 48.175 18.3088 48.993C19.1267 49.8109 20.1137 50.4402 21.2004 50.8368C22.2871 51.2333 23.4474 51.3875 24.5999 51.2886C30.6339 51.5206 36.6678 51.5206 42.7018 51.2886C48.0395 51.2886 51.0565 48.0395 51.2885 42.7018C51.5206 36.6678 51.5206 30.6339 51.2885 24.5999C51.3487 23.4565 51.1677 22.3131 50.7575 21.2441C50.3472 20.1751 49.7168 19.2042 48.9072 18.3946C48.0975 17.5849 47.1266 16.9545 46.0576 16.5442C44.9886 16.134 43.8452 15.953 42.7018 16.0132C36.6678 15.7811 30.6339 15.7811 24.5999 16.0132C23.4474 15.9142 22.2871 16.0684 21.2004 16.465C20.1137 16.8615 19.1267 17.4908 18.3088 18.3088C17.4908 19.1268 16.8615 20.1137 16.4649 21.2004C16.0684 22.2871 15.9142 23.4474 16.0132 24.5999V33.6509Z" fill="white"/>
<path id="&#60;Compound Path&#62;_2" d="M22.3721 33.7437C22.3782 30.7297 23.5783 27.8408 25.7095 25.7095C27.8408 23.5783 30.7297 22.3782 33.7437 22.3721C36.7411 22.4314 39.5992 23.6486 41.719 25.7684C43.8389 27.8883 45.056 30.7464 45.1154 33.7437C45.1093 36.7578 43.9092 39.6467 41.7779 41.7779C39.6467 43.9092 36.7578 45.1093 33.7437 45.1154C30.7464 45.056 27.8883 43.8389 25.7684 41.719C23.6486 39.5992 22.4314 36.7411 22.3721 33.7437ZM33.7437 26.5494C32.3342 26.5265 30.9499 26.925 29.7682 27.6939C28.5866 28.4627 27.6615 29.5669 27.1114 30.8649C26.5613 32.163 26.4114 33.5957 26.6808 34.9794C26.9502 36.3632 27.6267 37.635 28.6235 38.6319C29.6204 39.6287 30.8922 40.3052 32.276 40.5746C33.6597 40.844 35.0924 40.6941 36.3905 40.144C37.6885 39.5939 38.7927 38.6688 39.5615 37.4872C40.3304 36.3055 40.7289 34.9212 40.706 33.5117C40.706 31.6652 39.9725 29.8943 38.6668 28.5886C37.3611 27.2829 35.5902 26.5494 33.7437 26.5494Z" fill="white"/>
<path id="&#60;Path&#62;" d="M42.5622 21.9079C42.5492 21.5387 42.6124 21.1708 42.7478 20.827C42.8831 20.4833 43.0878 20.1711 43.349 19.9098C43.6103 19.6486 43.9225 19.4439 44.2662 19.3086C44.61 19.1732 44.9779 19.11 45.3471 19.123C46.0696 19.1719 46.7499 19.481 47.262 19.993C47.774 20.5051 48.0831 21.1854 48.132 21.9079C48.132 22.6465 47.8386 23.3548 47.3163 23.8771C46.7941 24.3994 46.0857 24.6928 45.3471 24.6928C44.6085 24.6928 43.9002 24.3994 43.3779 23.8771C42.8556 23.3548 42.5622 22.6465 42.5622 21.9079Z" fill="white"/>
</g>
</g>
</g>
</g>
<defs>
<linearGradient id="paint0_linear_359_1040" x1="-4.27018" y1="70.7132" x2="74.6353" y2="-7.03187" gradientUnits="userSpaceOnUse">
<stop stop-color="#FED576"/>
<stop offset="0.26" stop-color="#F47133"/>
<stop offset="0.61" stop-color="#BC3081"/>
<stop offset="1" stop-color="#4C63D2"/>
</linearGradient>
<clipPath id="clip0_359_1040">
<rect width="67" height="67" fill="white"/>
</clipPath>
</defs>
</svg>
