<svg width="57" height="10" viewBox="0 0 57 10" fill="none" xmlns="http://www.w3.org/2000/svg">
<g id="Vector">
<path d="M5.31138 1.50336L6.10838 3.11055C6.21707 3.33428 6.50689 3.54887 6.75142 3.58996L8.19599 3.83195C9.1198 3.98719 9.33716 4.66294 8.67148 5.32956L7.54843 6.46189C7.35823 6.65366 7.25408 7.02349 7.31295 7.28831L7.63447 8.69003C7.88806 9.79954 7.30389 10.2287 6.33028 9.64886L4.97627 8.8407C4.73174 8.6946 4.32871 8.6946 4.07964 8.8407L2.72564 9.64886C1.75655 10.2287 1.16785 9.79497 1.42145 8.69003L1.74297 7.28831C1.80184 7.02349 1.69768 6.65366 1.50749 6.46189L0.384434 5.32956C-0.276718 4.66294 -0.0638815 3.98719 0.85992 3.83195L2.30449 3.58996C2.5445 3.54887 2.83432 3.33428 2.943 3.11055L3.74001 1.50336C4.17474 0.631284 4.88118 0.631284 5.31138 1.50336Z" fill="#E2BE00"/>
<path d="M17.1802 1.50336L17.9047 3.11055C18.0035 3.33428 18.267 3.54887 18.4893 3.58996L19.8026 3.83195C20.6424 3.98719 20.84 4.66294 20.2348 5.32956L19.2139 6.46189C19.041 6.65366 18.9463 7.02349 18.9998 7.28831L19.2921 8.69003C19.5226 9.79954 18.9916 10.2287 18.1065 9.64886L16.8755 8.8407C16.6532 8.6946 16.2868 8.6946 16.0604 8.8407L14.8295 9.64886C13.9485 10.2287 13.4133 9.79497 13.6439 8.69003L13.9362 7.28831C13.9897 7.02349 13.895 6.65366 13.7221 6.46189L12.7011 5.32956C12.1001 4.66294 12.2936 3.98719 13.1334 3.83195L14.4467 3.58996C14.6648 3.54887 14.9283 3.33428 15.0271 3.11055L15.7517 1.50336C16.1469 0.631284 16.7891 0.631284 17.1802 1.50336Z" fill="#E2BE00"/>
<path d="M29.1912 1.50336L29.9883 3.11055C30.0969 3.33428 30.3868 3.54887 30.6313 3.58996L32.0759 3.83195C32.9997 3.98719 33.217 4.66294 32.5513 5.32956L31.4283 6.46189C31.2381 6.65366 31.1339 7.02349 31.1928 7.28831L31.5143 8.69003C31.7679 9.79954 31.1838 10.2287 30.2101 9.64886L28.8561 8.8407C28.6116 8.6946 28.2086 8.6946 27.9595 8.8407L26.6055 9.64886C25.6364 10.2287 25.0477 9.79497 25.3013 8.69003L25.6228 7.28831C25.6817 7.02349 25.5776 6.65366 25.3874 6.46189L24.2643 5.32956C23.6032 4.66294 23.816 3.98719 24.7398 3.83195L26.1844 3.58996C26.4244 3.54887 26.7142 3.33428 26.8229 3.11055L27.6199 1.50336C28.0546 0.631284 28.761 0.631284 29.1912 1.50336Z" fill="#E2BE00"/>
<path d="M40.2366 1.50336L40.9612 3.11055C41.06 3.33428 41.3234 3.54887 41.5457 3.58996L42.859 3.83195C43.6988 3.98719 43.8964 4.66294 43.2912 5.32956L42.2703 6.46189C42.0974 6.65366 42.0027 7.02349 42.0562 7.28831L42.3485 8.69003C42.579 9.79954 42.048 10.2287 41.1629 9.64886L39.932 8.8407C39.7097 8.6946 39.3433 8.6946 39.1168 8.8407L37.8859 9.64886C37.0049 10.2287 36.4698 9.79497 36.7003 8.69003L36.9926 7.28831C37.0461 7.02349 36.9514 6.65366 36.7785 6.46189L35.7576 5.32956C35.1565 4.66294 35.35 3.98719 36.1898 3.83195L37.5031 3.58996C37.7213 3.54887 37.9847 3.33428 38.0835 3.11055L38.8081 1.50336C39.2033 0.631284 39.8455 0.631284 40.2366 1.50336Z" fill="#E2BE00"/>
<path d="M53.0711 1.50336L53.8681 3.11055C53.9768 3.33428 54.2666 3.54887 54.5112 3.58996L55.9557 3.83195C56.8795 3.98719 57.0969 4.66294 56.4312 5.32956L55.3082 6.46189C55.118 6.65366 55.0138 7.02349 55.0727 7.28831L55.3942 8.69003C55.6478 9.79954 55.0636 10.2287 54.09 9.64886L52.736 8.8407C52.4915 8.6946 52.0884 8.6946 51.8394 8.8407L50.4854 9.64886C49.5163 10.2287 48.9276 9.79497 49.1812 8.69003L49.5027 7.28831C49.5616 7.02349 49.4574 6.65366 49.2672 6.46189L48.1442 5.32956C47.483 4.66294 47.6959 3.98719 48.6197 3.83195L50.0642 3.58996C50.3042 3.54887 50.5941 3.33428 50.7027 3.11055L51.4997 1.50336C51.9345 0.631284 52.6409 0.631284 53.0711 1.50336Z" fill="#656565"/>
</g>
</svg>
