<svg width="15" height="15" viewBox="0 0 15 15" fill="none" xmlns="http://www.w3.org/2000/svg">
<g id="truck" clip-path="url(#clip0_188_437)">
<path id="Vector" d="M10 1.875H0.625V10H10V1.875Z" stroke="#7B7B7B" stroke-width="2" stroke-linecap="round" stroke-linejoin="round"/>
<path id="Vector_2" d="M10 5H12.5L14.375 6.875V10H10V5Z" stroke="#7B7B7B" stroke-width="2" stroke-linecap="round" stroke-linejoin="round"/>
<path id="Vector_3" d="M3.4375 13.125C4.30044 13.125 5 12.4254 5 11.5625C5 10.6996 4.30044 10 3.4375 10C2.57456 10 1.875 10.6996 1.875 11.5625C1.875 12.4254 2.57456 13.125 3.4375 13.125Z" stroke="#7B7B7B" stroke-width="2" stroke-linecap="round" stroke-linejoin="round"/>
<path id="Vector_4" d="M11.5625 13.125C12.4254 13.125 13.125 12.4254 13.125 11.5625C13.125 10.6996 12.4254 10 11.5625 10C10.6996 10 10 10.6996 10 11.5625C10 12.4254 10.6996 13.125 11.5625 13.125Z" stroke="#7B7B7B" stroke-width="2" stroke-linecap="round" stroke-linejoin="round"/>
</g>
<defs>
<clipPath id="clip0_188_437">
<rect width="15" height="15" fill="white"/>
</clipPath>
</defs>
</svg>
