<svg width="67" height="67" viewBox="0 0 67 67" fill="none" xmlns="http://www.w3.org/2000/svg">
<g id="twitter" clip-path="url(#clip0_359_1051)">
<path id="Vector" d="M33.5 67C52.0015 67 67 52.0015 67 33.5C67 14.9985 52.0015 0 33.5 0C14.9985 0 0 14.9985 0 33.5C0 52.0015 14.9985 67 33.5 67Z" fill="#2DAAE1"/>
<path id="Vector_2" d="M54.9799 20.1744C53.3998 20.8756 51.7026 21.3496 49.9182 21.5626C51.7393 20.4721 53.1345 18.744 53.7932 16.6872C52.0633 17.7147 50.17 18.4381 48.1956 18.8259C46.5889 17.1132 44.2977 16.0439 41.7628 16.0439C36.8973 16.0439 32.9514 19.9883 32.9514 24.8567C32.9514 25.5465 33.029 26.2194 33.1784 26.8655C25.854 26.4974 19.3605 22.989 15.014 17.6579C14.2551 18.9599 13.8206 20.4737 13.8206 22.0888C13.8206 25.1459 15.3766 27.8432 17.741 29.4232C16.3413 29.3799 14.9724 29.0021 13.7486 28.3214V28.4328C13.7486 32.7031 16.7859 36.2637 20.8178 37.0735C20.0771 37.2765 19.2998 37.3825 18.4957 37.3825C17.9272 37.3825 17.3756 37.3287 16.8368 37.2273C17.9583 40.7274 21.2129 43.2751 25.0682 43.3471C22.0521 45.7114 18.2516 47.1208 14.1239 47.1208C13.4129 47.1208 12.7103 47.0784 12.0205 46.9952C15.9212 49.4964 20.5526 50.9565 25.5296 50.9565C41.7388 50.9565 50.6037 37.5279 50.6037 25.8824C50.6037 25.5 50.5953 25.1206 50.5769 24.7425C52.3041 23.4932 53.795 21.9464 54.9799 20.1744Z" fill="white"/>
</g>
<defs>
<clipPath id="clip0_359_1051">
<rect width="67" height="67" fill="white"/>
</clipPath>
</defs>
</svg>
