<svg width="16" height="16" viewBox="0 0 16 16" fill="none" xmlns="http://www.w3.org/2000/svg">
<g id="Iconsax/Linear/whatsapp" clip-path="url(#clip0_188_449)">
<path id="Vector" d="M4.59992 13.7333C5.59992 14.3333 6.79992 14.6667 7.99992 14.6667C11.6666 14.6667 14.6666 11.6667 14.6666 8.00001C14.6666 4.33334 11.6666 1.33334 7.99992 1.33334C4.33325 1.33334 1.33325 4.33334 1.33325 8.00001C1.33325 9.20001 1.66659 10.3333 2.19992 11.3333L1.62659 13.5373C1.59701 13.6511 1.59804 13.7707 1.62958 13.884C1.66113 13.9972 1.72206 14.1001 1.80619 14.1822C1.89033 14.2643 1.99469 14.3227 2.10867 14.3515C2.22266 14.3802 2.34223 14.3784 2.45525 14.346L4.59992 13.7333Z" stroke="#2A6280" stroke-miterlimit="10" stroke-linecap="round" stroke-linejoin="round"/>
<path id="Vector_2" d="M11.3334 10.1096C11.3334 10.2296 11.3067 10.3533 11.2497 10.4733C11.1915 10.5973 11.1151 10.7119 11.023 10.8133C10.8593 10.9933 10.6793 11.123 10.4749 11.2067C10.2749 11.2904 10.0579 11.3333 9.82453 11.3333C9.48379 11.3333 9.12008 11.2533 8.73564 11.0904C8.32921 10.9142 7.94404 10.6925 7.58749 10.4296C7.1997 10.1464 6.83374 9.83436 6.49267 9.49629C6.15524 9.15711 5.84397 8.79286 5.56156 8.40666C5.30202 8.05322 5.08241 7.67213 4.90675 7.27036C4.74675 6.88888 4.66675 6.52592 4.66675 6.17999C4.66675 5.95332 4.70675 5.73703 4.78675 5.53703C4.86675 5.33332 4.99416 5.14666 5.17119 4.97999C5.38453 4.76962 5.61786 4.66666 5.86527 4.66666C5.9586 4.66666 6.05193 4.68666 6.13564 4.72666C6.2223 4.76666 6.2986 4.82666 6.35934 4.91332L7.13416 6.00369C7.19341 6.08666 7.23786 6.16369 7.26749 6.23703C7.29712 6.30666 7.31416 6.37703 7.31416 6.43999C7.31319 6.52401 7.28882 6.60609 7.24379 6.67703C7.19235 6.76374 7.12957 6.84321 7.05712 6.91332L6.80304 7.17703C6.78537 7.19432 6.7715 7.21511 6.76232 7.23807C6.75313 7.26103 6.74884 7.28565 6.74971 7.31036C6.74971 7.33629 6.75341 7.35999 6.76008 7.38666C6.76971 7.41332 6.78008 7.43332 6.78675 7.45332C6.84601 7.56369 6.94971 7.70666 7.09712 7.87999C7.24749 8.05332 7.40749 8.23036 7.58082 8.40666C7.76156 8.58369 7.9349 8.74666 8.11193 8.89703C8.28527 9.04295 8.42897 9.14295 8.5423 9.20295L8.60304 9.23036C8.62965 9.23985 8.65777 9.24437 8.68601 9.24369C8.71156 9.24424 8.73695 9.23945 8.76054 9.22963C8.78414 9.21981 8.80543 9.20517 8.82304 9.18666L9.07638 8.93629C9.16008 8.85332 9.24008 8.79036 9.31712 8.74962C9.38796 8.70447 9.47015 8.68033 9.55415 8.67999C9.62427 8.68102 9.69349 8.69588 9.75786 8.72369C9.83119 8.75332 9.90823 8.79629 9.99119 8.85332L11.0964 9.63703C11.1765 9.68913 11.2401 9.76283 11.2801 9.84962C11.3147 9.93196 11.3328 10.0203 11.3334 10.1096Z" stroke="#2A6280" stroke-miterlimit="10"/>
</g>
<defs>
<clipPath id="clip0_188_449">
<rect width="16" height="16" fill="white"/>
</clipPath>
</defs>
</svg>
